{
	"asset":{
		"generator":"Khronos glTF Blender I/O v5.0.21",
		"version":"2.0"
	},
	"extensionsUsed":[
		"EXT_texture_webp"
	],
	"extensionsRequired":[
		"EXT_texture_webp"
	],
	"scene":0,
	"scenes":[
		{
			"name":"Scene",
			"nodes":[
				0,
				1,
				2,
				3
			]
		}
	],
	"nodes":[
		{
			"mesh":0,
			"name":"Cube"
		},
		{
			"mesh":1,
			"name":"Circle",
			"rotation":[
				0.7071068286895752,
				0,
				0,
				0.7071068286895752
			],
			"translation":[
				0.3975197374820709,
				-0.3035772144794464,
				0
			]
		},
		{
			"mesh":2,
			"name":"Circle.001",
			"rotation":[
				0.7071068286895752,
				0,
				0,
				0.7071068286895752
			],
			"translation":[
				0.3975197374820709,
				-0.3035772144794464,
				0
			]
		},
		{
			"mesh":3,
			"name":"Text",
			"rotation":[
				0.4409818649291992,
				0,
				0,
				0.8975160121917725
			],
			"scale":[
				0.1901237815618515,
				0.1901237815618515,
				0.1901237815618515
			],
			"translation":[
				0.41971322894096375,
				1.0950391292572021,
				0.11007280647754669
			]
		}
	],
	"materials":[
		{
			"doubleSided":true,
			"name":"Material",
			"pbrMetallicRoughness":{
				"baseColorFactor":[
					0.06574840843677521,
					0.06574840843677521,
					0.06574840843677521,
					1
				],
				"metallicFactor":0.9454547166824341,
				"roughnessFactor":0.3431818187236786
			}
		},
		{
			"doubleSided":true,
			"name":"Material.002",
			"pbrMetallicRoughness":{
				"baseColorFactor":[
					0.8000156879425049,
					0.13986146450042725,
					0.03618143871426582,
					1
				],
				"metallicFactor":0,
				"roughnessFactor":0.5
			}
		},
		{
			"doubleSided":true,
			"name":"Material.005"
		},
		{
			"doubleSided":true,
			"name":"Material.008",
			"pbrMetallicRoughness":{
				"baseColorTexture":{
					"index":0
				},
				"metallicFactor":0,
				"roughnessFactor":0.5
			}
		},
		{
			"doubleSided":true,
			"name":"Material.011",
			"pbrMetallicRoughness":{
				"baseColorFactor":[
					0.800000011920929,
					0.800000011920929,
					0.800000011920929,
					1
				],
				"metallicFactor":0,
				"roughnessFactor":0.5
			}
		},
		{
			"doubleSided":true,
			"name":"Material.012",
			"pbrMetallicRoughness":{
				"baseColorFactor":[
					0,
					0,
					0,
					1
				],
				"metallicFactor":0,
				"roughnessFactor":0.5
			}
		},
		{
			"doubleSided":true,
			"name":"Material.013",
			"pbrMetallicRoughness":{
				"baseColorTexture":{
					"index":1
				},
				"metallicFactor":0,
				"roughnessFactor":0.5
			}
		},
		{
			"doubleSided":true,
			"name":"Material.003",
			"pbrMetallicRoughness":{
				"baseColorFactor":[
					0.03861482813954353,
					0.03861482813954353,
					0.03861482813954353,
					1
				],
				"metallicFactor":0.7898089289665222,
				"roughnessFactor":0.15286624431610107
			}
		},
		{
			"doubleSided":true,
			"name":"Material.009",
			"pbrMetallicRoughness":{
				"baseColorFactor":[
					0.02467554435133934,
					0.02467554435133934,
					0.02467554435133934,
					1
				],
				"metallicFactor":0,
				"roughnessFactor":0.5
			}
		},
		{
			"doubleSided":true,
			"name":"Material.006",
			"pbrMetallicRoughness":{
				"baseColorTexture":{
					"index":2
				},
				"metallicFactor":0.7898089289665222,
				"roughnessFactor":0
			}
		},
		{
			"doubleSided":true,
			"name":"Material.007",
			"pbrMetallicRoughness":{
				"baseColorFactor":[
					0.8000074625015259,
					0.7884235382080078,
					0.6672305464744568,
					1
				],
				"metallicFactor":0,
				"roughnessFactor":0.5
			}
		}
	],
	"meshes":[
		{
			"name":"Cube",
			"primitives":[
				{
					"attributes":{
						"POSITION":0,
						"NORMAL":1,
						"TEXCOORD_0":2
					},
					"indices":3,
					"material":0
				},
				{
					"attributes":{
						"POSITION":0,
						"NORMAL":1,
						"TEXCOORD_0":2
					},
					"indices":4,
					"material":1
				},
				{
					"attributes":{
						"POSITION":0,
						"NORMAL":1,
						"TEXCOORD_0":2
					},
					"indices":5,
					"material":2
				},
				{
					"attributes":{
						"POSITION":0,
						"NORMAL":1,
						"TEXCOORD_0":2
					},
					"indices":6,
					"material":3
				},
				{
					"attributes":{
						"POSITION":0,
						"NORMAL":1,
						"TEXCOORD_0":2
					},
					"indices":7,
					"material":4
				},
				{
					"attributes":{
						"POSITION":0,
						"NORMAL":1,
						"TEXCOORD_0":2
					},
					"indices":8,
					"material":5
				},
				{
					"attributes":{
						"POSITION":0,
						"NORMAL":1,
						"TEXCOORD_0":2
					},
					"indices":9,
					"material":6
				}
			]
		},
		{
			"name":"Circle.001",
			"primitives":[
				{
					"attributes":{
						"POSITION":10,
						"NORMAL":11,
						"TEXCOORD_0":12
					},
					"indices":13,
					"material":7
				},
				{
					"attributes":{
						"POSITION":10,
						"NORMAL":11,
						"TEXCOORD_0":12
					},
					"indices":14,
					"material":8
				}
			]
		},
		{
			"name":"Circle.002",
			"primitives":[
				{
					"attributes":{
						"POSITION":15,
						"NORMAL":16,
						"TEXCOORD_0":17
					},
					"indices":18,
					"material":9
				}
			]
		},
		{
			"name":"Text.001",
			"primitives":[
				{
					"attributes":{
						"POSITION":19,
						"NORMAL":20,
						"TEXCOORD_0":21,
						"TANGENT":22
					},
					"indices":23,
					"material":10
				}
			]
		}
	],
	"textures":[
		{
			"sampler":0,
			"source":0
		},
		{
			"sampler":0,
			"source":1
		},
		{
			"extensions":{
				"EXT_texture_webp":{
					"source":2
				}
			},
			"sampler":0
		}
	],
	"images":[
		{
			"mimeType":"image/png",
			"name":"fundo-preto-texturizado-de-couro-fino_53876-104643.jpg-2",
			"uri":"fundo-preto-texturizado-de-couro-fino_53876-104643.jpg-2.png"
		},
		{
			"mimeType":"image/png",
			"name":"fundo-preto-texturizado-de-couro-fino_53876-104643.jpg-2 (1)",
			"uri":"fundo-preto-texturizado-de-couro-fino_53876-104643.jpg-2%20%281%29.png"
		},
		{
			"mimeType":"image/webp",
			"name":"a7iii-2",
			"uri":"a7iii-2.webp"
		}
	],
	"accessors":[
		{
			"bufferView":0,
			"componentType":5126,
			"count":3822,
			"max":[
				1.984065055847168,
				1.4241067171096802,
				0.9691891670227051
			],
			"min":[
				-2.1332778930664062,
				-1.4229172468185425,
				-0.7438516020774841
			],
			"type":"VEC3"
		},
		{
			"bufferView":1,
			"componentType":5126,
			"count":3822,
			"type":"VEC3"
		},
		{
			"bufferView":2,
			"componentType":5126,
			"count":3822,
			"type":"VEC2"
		},
		{
			"bufferView":3,
			"componentType":5123,
			"count":17346,
			"type":"SCALAR"
		},
		{
			"bufferView":4,
			"componentType":5123,
			"count":1242,
			"type":"SCALAR"
		},
		{
			"bufferView":5,
			"componentType":5123,
			"count":9,
			"type":"SCALAR"
		},
		{
			"bufferView":6,
			"componentType":5123,
			"count":39,
			"type":"SCALAR"
		},
		{
			"bufferView":7,
			"componentType":5123,
			"count":594,
			"type":"SCALAR"
		},
		{
			"bufferView":8,
			"componentType":5123,
			"count":378,
			"type":"SCALAR"
		},
		{
			"bufferView":9,
			"componentType":5123,
			"count":702,
			"type":"SCALAR"
		},
		{
			"bufferView":10,
			"componentType":5126,
			"count":14474,
			"max":[
				1.0067590475082397,
				2.7219109535217285,
				1.006759762763977
			],
			"min":[
				-1.006760597229004,
				0.4192970395088196,
				-1.006759762763977
			],
			"type":"VEC3"
		},
		{
			"bufferView":11,
			"componentType":5126,
			"count":14474,
			"type":"VEC3"
		},
		{
			"bufferView":12,
			"componentType":5126,
			"count":14474,
			"type":"VEC2"
		},
		{
			"bufferView":13,
			"componentType":5123,
			"count":24378,
			"type":"SCALAR"
		},
		{
			"bufferView":14,
			"componentType":5123,
			"count":3456,
			"type":"SCALAR"
		},
		{
			"bufferView":15,
			"componentType":5126,
			"count":64,
			"max":[
				0.7033243775367737,
				2.641540288925171,
				0.7033243775367737
			],
			"min":[
				-0.7033243179321289,
				2.641540288925171,
				-0.7033243775367737
			],
			"type":"VEC3"
		},
		{
			"bufferView":16,
			"componentType":5126,
			"count":64,
			"type":"VEC3"
		},
		{
			"bufferView":17,
			"componentType":5126,
			"count":64,
			"type":"VEC2"
		},
		{
			"bufferView":18,
			"componentType":5123,
			"count":186,
			"type":"SCALAR"
		},
		{
			"bufferView":19,
			"componentType":5126,
			"count":229,
			"max":[
				1.9570001363754272,
				0,
				0.310001939535141
			],
			"min":[
				-1.9590002298355103,
				0,
				-0.3920018970966339
			],
			"type":"VEC3"
		},
		{
			"bufferView":20,
			"componentType":5126,
			"count":229,
			"type":"VEC3"
		},
		{
			"bufferView":21,
			"componentType":5126,
			"count":229,
			"type":"VEC2"
		},
		{
			"bufferView":22,
			"componentType":5126,
			"count":229,
			"type":"VEC4"
		},
		{
			"bufferView":23,
			"componentType":5123,
			"count":663,
			"type":"SCALAR"
		}
	],
	"bufferViews":[
		{
			"buffer":0,
			"byteLength":45864,
			"byteOffset":0,
			"target":34962
		},
		{
			"buffer":0,
			"byteLength":45864,
			"byteOffset":45864,
			"target":34962
		},
		{
			"buffer":0,
			"byteLength":30576,
			"byteOffset":91728,
			"target":34962
		},
		{
			"buffer":0,
			"byteLength":34692,
			"byteOffset":122304,
			"target":34963
		},
		{
			"buffer":0,
			"byteLength":2484,
			"byteOffset":156996,
			"target":34963
		},
		{
			"buffer":0,
			"byteLength":18,
			"byteOffset":159480,
			"target":34963
		},
		{
			"buffer":0,
			"byteLength":78,
			"byteOffset":159500,
			"target":34963
		},
		{
			"buffer":0,
			"byteLength":1188,
			"byteOffset":159580,
			"target":34963
		},
		{
			"buffer":0,
			"byteLength":756,
			"byteOffset":160768,
			"target":34963
		},
		{
			"buffer":0,
			"byteLength":1404,
			"byteOffset":161524,
			"target":34963
		},
		{
			"buffer":0,
			"byteLength":173688,
			"byteOffset":162928,
			"target":34962
		},
		{
			"buffer":0,
			"byteLength":173688,
			"byteOffset":336616,
			"target":34962
		},
		{
			"buffer":0,
			"byteLength":115792,
			"byteOffset":510304,
			"target":34962
		},
		{
			"buffer":0,
			"byteLength":48756,
			"byteOffset":626096,
			"target":34963
		},
		{
			"buffer":0,
			"byteLength":6912,
			"byteOffset":674852,
			"target":34963
		},
		{
			"buffer":0,
			"byteLength":768,
			"byteOffset":681764,
			"target":34962
		},
		{
			"buffer":0,
			"byteLength":768,
			"byteOffset":682532,
			"target":34962
		},
		{
			"buffer":0,
			"byteLength":512,
			"byteOffset":683300,
			"target":34962
		},
		{
			"buffer":0,
			"byteLength":372,
			"byteOffset":683812,
			"target":34963
		},
		{
			"buffer":0,
			"byteLength":2748,
			"byteOffset":684184,
			"target":34962
		},
		{
			"buffer":0,
			"byteLength":2748,
			"byteOffset":686932,
			"target":34962
		},
		{
			"buffer":0,
			"byteLength":1832,
			"byteOffset":689680,
			"target":34962
		},
		{
			"buffer":0,
			"byteLength":3664,
			"byteOffset":691512,
			"target":34962
		},
		{
			"buffer":0,
			"byteLength":1326,
			"byteOffset":695176,
			"target":34963
		}
	],
	"samplers":[
		{
			"magFilter":9729,
			"minFilter":9987
		}
	],
	"buffers":[
		{
			"byteLength":696504,
			"uri":"a7iii_3D5.bin"
		}
	]
}
